# xmcd
#
# Track frame offsets:
#	150
#	28595
#	41757
#	55795
#	65095
#	78767
#	104020
#	116570
#	133292
#
# Disc length: 2123
#
# Revision: 2
# Processed by: cddbd v1.5.1PL0 Copyright (c) Steve Scherf et al.
# Submitted via: EasyCDDAExtractor 5.1.0
# Normalized: r1:DSETVAR1
#
DISCID=7e084909
DTITLE=Various Artist - Otisology
DYEAR=1995
DGENRE=Blues
TTITLE0=Johnny Otis - Hand Jive '85 - Willie and the Hand Jive
TTITLE1=Barbara Morrison - Roll With Me Henry
TTITLE2=Barbara Morrison - Let's Go, Johnny
TTITLE3=Charles Williams - I'm Ready for Love
TTITLE4=Barbara Morrison - I'm Scared of You
TTITLE5=Johnny Otis - Fonkitup
TTITLE6=Johnny Otis - Sugar Pie, Honey Bunch
TTITLE7=Johnny Otis - I Wanna' Come Over
TTITLE8=Johnny Otis - Nut Pony
EXTD=
EXTT0=
EXTT1=(Johnny Otis, Hank Ballard, Etta James]\nVocals - Barbara Morrison and Johnny Otis\n
EXTT2=(Barbara Morrison, Pam Morrison)
EXTT3=(Holland, Dozier, Holland)
EXTT4=(Barbara Morrison, Pam Williams)
EXTT5=(Johnny Otis, Barbara Morrison)
EXTT6=(Holland, Dozier, Holland)
EXTT7=(Johnny Otis, Bob Frazier]\nVocals - Charles Williams, Barbara Morrison, Bob Frazier
EXTT8=(Otis, Otis, Otis, Kim, Turre, Bell, Abrams]\nInstrumental Jam
PLAYORDER=
